<svg xmlns="http://www.w3.org/2000/svg" xmlns:xlink="http://www.w3.org/1999/xlink" width="48" height="64" viewBox="0 0 48 64">
  <defs>
    <path id="map-marker-b" d="M20,0 C8.97194044,0 0,9.09804234 0,20.2809935 C0,34.1593854 17.8980407,54.5336758 18.6600657,55.3942394 C19.3758191,56.202631 20.6254753,56.2012091 21.3399343,55.3942394 C22.1019593,54.5336758 40,34.1593854 40,20.2809935 C39.9997843,9.09804234 31.0279517,0 20,0 Z"/>
    <filter id="map-marker-a" width="135%" height="125%" x="-17.5%" y="-8.9%" filterUnits="objectBoundingBox">
      <feOffset dy="2" in="SourceAlpha" result="shadowOffsetOuter1"/>
      <feGaussianBlur in="shadowOffsetOuter1" result="shadowBlurOuter1" stdDeviation="2"/>
      <feColorMatrix in="shadowBlurOuter1" values="0 0 0 0 0   0 0 0 0 0   0 0 0 0 0  0 0 0 0.1 0"/>
    </filter>
  </defs>
  <g fill="none" fill-rule="evenodd" transform="translate(4 2)">
    <g fill-rule="nonzero">
      <use fill="#000" filter="url(#map-marker-a)" xlink:href="#map-marker-b"/>
      <use fill="#253764" fill-rule="evenodd" xlink:href="#map-marker-b"/>
    </g>
    <path fill="#FFF" d="M31.9329492,24.6765886 C31.6490207,25.690308 30.6301222,26.4421032 29.5152156,26.0982039 C28.891982,25.9062141 28.3283848,25.3797266 28.0490437,24.8522494 C27.9635212,24.6909383 27.7620024,24.7638417 27.7985379,24.9431311 C27.9663064,25.7711285 27.9418947,26.6309592 27.2637759,27.1409528 C26.454588,27.7497452 25.3994817,27.5181699 24.8227776,26.7813842 C24.2744172,26.0802255 24.6091349,24.8392191 25.2882368,24.3287307 C25.3968603,24.2469206 25.3768723,24.1303083 25.24695,24.0905578 L21.7844318,23.0233979 C21.3124192,22.8899617 20.8174694,23.1573289 20.6669038,23.627572 L20.0235183,25.7483668 L19.974695,25.9058842 C19.5056315,27.4540083 21.6417303,28.2775523 22.2846243,27.0142791 C22.5020352,27.3677449 22.5937835,27.9014898 22.468121,28.3733823 C22.0011873,30.1271862 20.0271227,29.9751118 19.1643603,28.7540631 C19.0588496,28.6044628 18.8660142,28.7062306 18.928272,28.8789225 C19.4594296,30.3536484 18.9751292,31.2720327 18.247368,31.9591715 C17.6272473,32.5450374 16.8459115,32.9039462 16.2159606,33.4662256 C16.1315849,33.1346968 15.9947815,32.8173528 15.8653508,32.5016582 C15.2116436,30.9119693 14.7389756,29.4379031 16.5151259,28.1350444 C16.6625786,28.0270089 16.5593617,27.8343593 16.388808,27.8986858 C15.902214,28.0824286 15.2645627,28.0723673 14.8410457,27.9059431 C13.303605,27.3034184 13.4893955,25.2779588 14.767647,24.6977009 C14.5998785,26.1072756 16.8277257,26.62865 17.2979361,25.0813506 L17.3449572,24.9226786 L17.9888342,22.8022137 C18.1249822,22.3271874 17.8631717,21.8270902 17.3978763,21.6713871 L13.9351943,20.6043921 C13.8051082,20.5643118 13.7240092,20.6492557 13.7689003,20.7785684 C14.0485691,21.5846288 13.6373397,22.8022137 12.7932547,23.0738694 C11.9062445,23.3598749 10.9034019,22.9570921 10.5701587,21.9966482 C10.291473,21.1912476 10.7482489,20.4645232 11.3470709,19.8730494 C11.4766654,19.7450562 11.3503476,19.5710448 11.1896241,19.6566485 C10.6653477,19.9362213 9.90563832,20.0549779 9.28256854,19.8629881 C8.16766192,19.5195836 7.74037662,18.3219564 8.06723022,17.3234114 C8.35115868,16.309527 9.3697295,15.5580617 10.4849638,15.9016311 C11.1080336,16.093621 11.6717946,16.6204384 11.9511356,17.1477506 C12.0364944,17.3092266 12.2378493,17.2359934 12.2016415,17.0568689 C12.033873,16.2290365 12.0582846,15.3692058 12.7364034,14.8588823 C13.5455914,14.2502548 14.6006977,14.4815002 15.1772379,15.2187807 C15.7257622,15.9199394 15.3908806,17.1607809 14.7119426,17.6714342 C14.6029914,17.7532443 14.6231433,17.8693619 14.7532294,17.9094422 L18.2157476,18.9766021 C18.6875964,19.1100383 19.1823823,18.842836 19.3331118,18.3727579 L19.9766611,16.2517981 L20.0254843,16.0941158 C20.4945479,14.5459917 18.3584491,13.7222828 17.7152274,14.9858859 C17.498308,14.6322551 17.406232,14.0988401 17.5320583,13.6264528 C17.998992,11.8729788 19.9732205,12.0248882 20.8356553,13.2459369 C20.9413297,13.3955372 21.1338375,13.2939343 21.0717435,13.1214074 C20.5407498,11.6463516 21.0250501,10.7278024 21.7526475,10.0408285 C22.3724406,9.45512756 23.154104,9.09621876 23.7830719,8.53344447 C23.8677753,8.86530317 24.0047425,9.18264716 24.1343371,9.49817683 C24.7885358,11.0878657 25.2612038,12.5622618 23.4850535,13.8649556 C23.3377646,13.9729911 23.4408177,14.1658056 23.6113713,14.1013142 C24.0979654,13.9177363 24.7354528,13.9277976 25.1589699,14.0938919 C26.6965744,14.6967466 26.5106201,16.7222062 25.2323686,17.3022991 C25.4003009,15.8925595 23.1722898,15.37135 22.7022432,16.9188143 L22.6552222,17.0771564 L22.0110175,19.1981162 C21.875361,19.6726477 22.13668,20.1730748 22.602303,20.3286129 L26.0648213,21.395443 C26.1949073,21.4356882 26.2761702,21.3504144 26.231279,21.2215965 C25.9517741,20.4153712 26.3628396,19.1979512 27.2069247,18.9259656 C28.0942626,18.6399602 29.0967774,19.0429079 29.4300207,20.0035168 C29.7087064,20.8087524 29.2519305,21.5354768 28.6527808,22.1269506 C28.5233501,22.2547788 28.6501595,22.4287902 28.8102276,22.3433515 C29.3346679,22.0636137 30.0943772,21.9450221 30.7176108,22.1371768 C31.8325174,22.4807462 32.2596389,23.6780436 31.9329492,24.6765886 Z M28.5105709,28.1231687 C26.6914954,30.3551329 24.2935861,31.7617387 21.7626415,32.3137919 C23.4821044,31.5138343 25.087701,30.1492881 26.3941324,28.382289 C27.4621818,28.3092207 28.439302,27.4775947 28.4799334,26.1907351 C28.7971207,26.5143468 29.0993988,26.7221708 29.4105241,26.8480198 C29.1379004,27.2958311 28.8372606,27.7223652 28.5105709,28.1231687 Z M19.0681883,32.4046737 C19.5898434,31.8544348 20.0118859,31.0612398 19.8278976,30.1501128 C21.760184,31.3426269 23.6238229,29.5182288 23.2730492,27.7157676 C23.1077383,26.866658 22.5280851,26.2275167 21.8520962,25.9043998 C22.0629536,26.3550151 21.679085,26.959849 21.1190922,26.7963937 C20.741777,26.6857192 20.5690935,26.324996 20.6647739,25.9966011 L20.7255572,25.7975188 L21.3211025,23.8339116 C21.3548528,23.7283502 21.464787,23.668807 21.5693146,23.6956921 L24.3201276,24.5433173 C23.3097486,26.0154042 23.8143646,27.5986605 25.3608163,28.2095971 C23.5728698,30.5942954 21.3040635,32.0705058 19.0681883,32.4046737 Z M11.5961022,13.811845 C13.4153414,11.5800458 15.8127593,10.17344 18.3440315,9.62155173 C16.6047444,10.4307459 14.9814535,11.8177239 13.667158,13.6144122 C12.5755161,13.6589459 11.5613689,14.4978293 11.5202459,15.8094298 C11.2215722,15.5044563 10.9358415,15.3022402 10.6432297,15.1747418 C10.9301073,14.6947673 11.2482775,14.2385441 11.5961022,13.811845 Z M20.9870401,9.53858706 C20.4403181,10.0904753 19.98174,10.9070918 20.1722817,11.8500521 C18.2399954,10.6572082 16.3763565,12.4816063 16.7271302,14.2840674 C16.8926049,15.133342 17.4720942,15.7723184 18.1479193,16.0957652 C17.9372257,15.6449849 18.3210944,15.040316 18.8810872,15.2039362 C19.2584024,15.3142808 19.4310859,15.675004 19.3352416,16.0035639 L19.2746222,16.2026461 L18.6789131,18.1659235 C18.6451628,18.2714849 18.5353924,18.331358 18.4310286,18.3043079 L15.6800518,17.4565178 C16.6806006,15.9989456 16.1954811,14.4320183 14.6842542,13.8087112 C16.4674495,11.393664 18.7419901,9.89139309 20.9870401,9.53858706 Z M32.0396066,21.9387544 C32.2543961,19.0567628 31.4455359,15.8770551 29.082196,13.2739766 C29.0248533,13.20998 28.9647253,13.2068462 29.027147,13.286677 C30.8113252,15.7726483 31.4455359,18.7052763 31.1771719,21.4894586 C30.8160765,21.3865362 30.4125475,21.3753203 29.9103889,21.477253 C30.5360801,20.4755742 30.2927831,19.3470567 29.5935294,18.6564541 C29.5589599,16.1658645 28.831854,13.9203754 27.5039601,12.0819574 C27.1861175,11.6420632 26.4871915,11.0001178 26.2009693,10.8201686 C26.1575526,10.7932834 26.1465756,10.8176945 26.1770492,10.8480434 C27.6922081,12.3638393 28.6537639,15.004689 28.6709667,18.1047308 L28.6449167,18.0968137 C26.9321711,17.5977062 25.5264549,18.6353419 25.5479174,20.4976761 L22.7972683,19.649886 C22.6956898,19.6135993 22.6378555,19.5021 22.6681653,19.395384 L23.2643659,17.4322716 L23.3244938,17.2328595 C23.4275469,16.9066088 23.7706203,16.7047226 24.1448226,16.8261182 C24.700228,17.0060674 24.682206,17.7237201 24.2573782,17.9785519 C24.9972634,18.0913707 25.8326651,17.8884949 26.4409896,17.2778881 C27.7321842,15.981462 27.2002074,13.4186288 24.9361524,13.3183454 C25.7864632,12.4764931 25.6896359,11.2280645 25.3999732,10.4104584 C25.1710938,9.76356482 24.3171785,7.70891087 24.2490226,7 C23.8119071,7.53308514 22.0580386,8.70019852 21.4533184,9.1404226 C16.6514378,8.57418458 12.0014334,10.8579398 9.61220735,14.988195 L9.57665486,14.9890197 C8.82202445,15.0058436 7.64027259,15.4496963 7.15613606,17.042684 C6.67380174,18.6341873 7.40713341,19.6685242 8.02315823,20.1077586 L8.05756387,20.1321697 C7.87832686,22.9780395 8.69865565,26.0986987 11.0248047,28.6608722 C11.0819836,28.7245389 11.1426031,28.7278377 11.0800176,28.6483368 C9.31500814,26.1890857 8.67555472,23.2929094 8.92163698,20.536272 C9.25733774,20.6147833 9.6326869,20.615608 10.0894628,20.5230768 C9.43215116,21.5755571 9.7344293,22.7682361 10.516748,23.4454786 C10.5808081,25.8691027 11.3051287,28.0557084 12.6032044,29.8527265 C12.921047,30.2929506 13.6198092,30.934731 13.9063591,31.1145153 C13.9492842,31.1414005 13.9604251,31.1171543 13.9301154,31.0868054 C12.4303571,29.5868437 11.473061,26.984425 11.4366894,23.925783 C13.1122441,24.3693059 14.473233,23.334969 14.4520981,21.5023239 L17.202911,22.350114 C17.3044896,22.3865657 17.3623238,22.4980649 17.3320141,22.604451 L16.7358135,24.5678933 L16.6753579,24.7673054 C16.5726325,25.0933912 16.2292314,25.2952774 15.8551929,25.1737169 C15.2999514,24.9937676 15.3178096,24.2762799 15.7426373,24.0212831 C15.002916,23.9086293 14.1673504,24.1115051 13.5593536,24.7221119 C12.2679952,26.018703 12.799972,28.5813712 15.0636993,28.6818195 C14.2133885,29.5233419 14.3105434,30.7722654 14.5998785,31.5895416 C14.8290856,32.2361053 15.6826732,34.2910891 15.7511568,35 C16.2012154,34.4507508 18.0496175,33.2287125 18.5983056,32.8216413 L18.6366433,32.7927768 C23.4198466,33.3636332 28.0551057,31.1052787 30.4577663,27.0101556 C31.2132159,26.9804664 32.3669517,26.5262225 32.8438795,24.957151 C33.3098302,23.4195831 32.6412139,22.40207 32.0396066,21.9387544 Z"/>
  </g>
</svg>
